<?xml version="1.0" standalone="no"?>
<!DOCTYPE svg PUBLIC "-//W3C//DTD SVG 20010904//EN"
 "http://www.w3.org/TR/2001/REC-SVG-20010904/DTD/svg10.dtd">
<svg version="1.0" xmlns="http://www.w3.org/2000/svg"
 width="512.000000pt" height="512.000000pt" viewBox="0 0 512.000000 512.000000"
 preserveAspectRatio="xMidYMid meet">
<metadata>
Created by potrace 1.14, written by Peter Selinger 2001-2017
</metadata>
<g transform="translate(0.000000,512.000000) scale(0.100000,-0.100000)"
fill="#000000" stroke="none">
<path d="M2375 5114 c-16 -2 -82 -11 -145 -20 -285 -39 -550 -118 -797 -240
-718 -354 -1228 -1016 -1382 -1794 -77 -389 -66 -742 34 -1141 179 -709 689
-1334 1350 -1654 286 -138 549 -213 876 -250 441 -49 925 35 1346 235 725 344
1252 1018 1408 1801 82 413 71 749 -40 1175 -116 447 -364 863 -709 1191 -386
367 -880 602 -1426 678 -109 16 -451 28 -515 19z m525 -824 c744 -152 1309
-762 1401 -1514 17 -140 6 -422 -21 -551 -48 -226 -161 -483 -298 -674 -81
-114 -247 -285 -357 -368 -221 -166 -455 -275 -709 -329 -165 -35 -441 -44
-602 -19 -204 31 -341 74 -506 156 -201 101 -336 197 -484 344 -251 250 -408
541 -486 897 -19 90 -22 132 -22 338 0 254 10 332 70 523 215 682 855 1188
1549 1226 161 8 337 -2 465 -29z"/>
<path d="M2315 4056 c-344 -59 -594 -190 -830 -437 -289 -302 -425 -638 -425
-1049 0 -534 279 -1021 748 -1303 395 -237 983 -261 1397 -55 454 226 759 639
841 1138 16 102 18 323 3 423 -54 360 -227 684 -490 918 -208 186 -415 293
-679 350 -132 28 -437 36 -565 15z m600 -533 c50 -12 117 -31 150 -43 172 -65
296 -199 339 -366 21 -79 21 -215 0 -285 -40 -139 -143 -258 -280 -326 l-76
-37 43 -19 c110 -46 195 -142 245 -274 41 -108 54 -195 61 -395 l6 -188 -180
0 -181 0 -4 203 c-4 166 -9 213 -25 263 -38 117 -110 190 -227 231 -44 16 -88
18 -341 18 l-290 0 -3 -357 -2 -358 -180 0 -180 0 0 973 c0 536 3 977 8 981 4
4 237 6 517 3 468 -4 517 -6 600 -24z"/>
<path d="M2150 2931 l0 -311 283 0 c305 0 377 9 477 60 108 55 170 164 156
274 -11 93 -26 126 -79 181 -42 43 -65 57 -122 76 -66 22 -89 23 -392 27
l-323 3 0 -310z"/>
</g>
</svg>
