<?xml version="1.0" standalone="no"?>
<!DOCTYPE svg PUBLIC "-//W3C//DTD SVG 20010904//EN"
 "http://www.w3.org/TR/2001/REC-SVG-20010904/DTD/svg10.dtd">
<svg version="1.0" xmlns="http://www.w3.org/2000/svg"
 width="512.000000pt" height="512.000000pt" viewBox="0 0 512.000000 512.000000"
 preserveAspectRatio="xMidYMid meet">
<metadata>
Created by potrace 1.14, written by Peter Selinger 2001-2017
</metadata>
<g transform="translate(0.000000,512.000000) scale(0.100000,-0.100000)"
fill="#000000" stroke="none">
<path d="M2380 4700 c-30 -4 -76 -10 -101 -13 -83 -11 -232 -46 -339 -81 -765
-248 -1322 -893 -1461 -1691 -23 -136 -34 -464 -18 -575 5 -36 11 -81 13 -100
11 -84 50 -248 82 -347 147 -449 450 -850 841 -1114 237 -160 536 -285 778
-325 17 -3 36 -7 43 -10 8 -2 37 -7 65 -10 29 -3 72 -10 97 -14 25 -5 140 -7
255 -5 191 4 326 18 440 48 11 3 41 10 66 16 169 39 484 175 596 257 17 13 34
24 38 24 11 0 158 111 230 174 248 216 456 499 570 777 14 35 30 73 35 84 37
78 106 352 125 495 3 25 8 131 10 235 4 188 -1 254 -31 430 -9 56 -43 190 -58
233 -8 23 -16 44 -16 47 -2 12 -14 46 -48 130 -123 311 -338 610 -594 828 -28
23 -60 50 -72 61 -47 41 -247 168 -336 214 -161 83 -279 128 -465 177 -103 27
-116 29 -304 54 -79 10 -365 11 -441 1z"/>
</g>
</svg>
